<svg width="296" height="270" viewBox="0 0 296 270" fill="none" xmlns="http://www.w3.org/2000/svg">
<circle cx="161" cy="135" r="135" fill="url(#paint0_linear_89_28)"/>
<g filter="url(#filter0_d_89_28)">
<rect x="59" y="49" width="207" height="163" rx="15" fill="white"/>
</g>
<path d="M59 64C59 55.7157 65.7157 49 74 49H251C259.284 49 266 55.7157 266 64H59Z" fill="#BCC3D1"/>
<rect x="79" y="76" width="51" height="6" rx="3" fill="#BCC3D1"/>
<rect x="79" y="88" width="77" height="6" rx="3" fill="#BCC3D1"/>
<rect x="79" y="106" width="97" height="68" rx="6" fill="#BCC3D1"/>
<rect x="79" y="183" width="97" height="41" rx="6" fill="#BCC3D1"/>
<rect x="185" y="106" width="97" height="44" rx="6" fill="#BCC3D1"/>
<rect x="185" y="159" width="73" height="44" rx="6" fill="#BCC3D1"/>
<circle cx="258" cy="204" r="20" fill="#1ABC9C"/>
<circle cx="258" cy="204" r="13" fill="#55DAC0"/>
<path d="M252.15 203L254.633 206.275C255.365 207.24 256.78 207.339 257.638 206.484L264.15 200" stroke="white" stroke-width="2" stroke-linecap="round"/>
<g filter="url(#filter1_d_89_28)">
<rect x="9" y="100" width="60" height="84" rx="6" fill="white"/>
</g>
<path d="M9 106C9 102.686 11.6863 100 15 100H63C66.3137 100 69 102.686 69 106V110H9V106Z" fill="#BCC3D1"/>
<circle cx="39" cy="134" r="14" fill="#3252DF"/>
<circle cx="39" cy="129" r="5" fill="white"/>
<circle cx="39" cy="146" r="10" fill="white"/>
<rect x="24" y="159" width="30" height="6" rx="3" fill="#BCC3D1"/>
<rect x="16" y="169" width="46" height="6" rx="3" fill="#BCC3D1"/>
<defs>
<filter id="filter0_d_89_28" x="38" y="40" width="237" height="193" filterUnits="userSpaceOnUse" color-interpolation-filters="sRGB">
<feFlood flood-opacity="0" result="BackgroundImageFix"/>
<feColorMatrix in="SourceAlpha" type="matrix" values="0 0 0 0 0 0 0 0 0 0 0 0 0 0 0 0 0 0 127 0" result="hardAlpha"/>
<feOffset dx="-6" dy="6"/>
<feGaussianBlur stdDeviation="7.5"/>
<feColorMatrix type="matrix" values="0 0 0 0 0 0 0 0 0 0 0 0 0 0 0 0 0 0 0.05 0"/>
<feBlend mode="normal" in2="BackgroundImageFix" result="effect1_dropShadow_89_28"/>
<feBlend mode="normal" in="SourceGraphic" in2="effect1_dropShadow_89_28" result="shape"/>
</filter>
<filter id="filter1_d_89_28" x="0" y="91" width="90" height="114" filterUnits="userSpaceOnUse" color-interpolation-filters="sRGB">
<feFlood flood-opacity="0" result="BackgroundImageFix"/>
<feColorMatrix in="SourceAlpha" type="matrix" values="0 0 0 0 0 0 0 0 0 0 0 0 0 0 0 0 0 0 127 0" result="hardAlpha"/>
<feOffset dx="6" dy="6"/>
<feGaussianBlur stdDeviation="7.5"/>
<feColorMatrix type="matrix" values="0 0 0 0 0 0 0 0 0 0 0 0 0 0 0 0 0 0 0.05 0"/>
<feBlend mode="normal" in2="BackgroundImageFix" result="effect1_dropShadow_89_28"/>
<feBlend mode="normal" in="SourceGraphic" in2="effect1_dropShadow_89_28" result="shape"/>
</filter>
<linearGradient id="paint0_linear_89_28" x1="269" y1="55.5" x2="59.5" y2="223" gradientUnits="userSpaceOnUse">
<stop stop-color="#F5F7FD"/>
<stop offset="1" stop-color="white"/>
</linearGradient>
</defs>
</svg>
